<?xml version="1.0" encoding="UTF-8" standalone="no"?>
<!-- Created with Inkscape (http://www.inkscape.org/) -->

<svg
   width="67.077026mm"
   height="45.212196mm"
   viewBox="0 0 67.077026 45.212196"
   version="1.1"
   id="svg1"
   sodipodi:docname="logo_personal_blog_tests.svg"
   inkscape:version="1.3 (0e150ed6c4, 2023-07-21)"
   inkscape:export-filename="drawing.svg"
   inkscape:export-xdpi="96"
   inkscape:export-ydpi="96"
   xmlns:inkscape="http://www.inkscape.org/namespaces/inkscape"
   xmlns:sodipodi="http://sodipodi.sourceforge.net/DTD/sodipodi-0.dtd"
   xmlns="http://www.w3.org/2000/svg"
   xmlns:svg="http://www.w3.org/2000/svg">
  <sodipodi:namedview
     id="namedview1"
     pagecolor="#505050"
     bordercolor="#eeeeee"
     borderopacity="1"
     inkscape:showpageshadow="0"
     inkscape:pageopacity="0"
     inkscape:pagecheckerboard="0"
     inkscape:deskcolor="#505050"
     inkscape:document-units="mm"
     inkscape:zoom="1.4142136"
     inkscape:cx="-908.27866"
     inkscape:cy="812.11214"
     inkscape:window-width="1920"
     inkscape:window-height="1057"
     inkscape:window-x="-8"
     inkscape:window-y="-8"
     inkscape:window-maximized="1"
     inkscape:current-layer="layer1" />
  <defs
     id="defs1">
    <linearGradient
       id="swatch43"
       inkscape:swatch="solid">
      <stop
         style="stop-color:#000000;stop-opacity:1;"
         offset="0"
         id="stop43" />
    </linearGradient>
    <linearGradient
       id="swatch37"
       inkscape:swatch="solid">
      <stop
         style="stop-color:#000000;stop-opacity:1;"
         offset="0"
         id="stop37" />
    </linearGradient>
    <linearGradient
       id="swatch36"
       inkscape:swatch="solid"
       gradientTransform="scale(0.26458333)">
      <stop
         style="stop-color:#000000;stop-opacity:0;"
         offset="0"
         id="stop36" />
    </linearGradient>
    <linearGradient
       id="swatch14"
       inkscape:swatch="solid">
      <stop
         style="stop-color:#000000;stop-opacity:1;"
         offset="0"
         id="stop14" />
    </linearGradient>
  </defs>
  <g
     inkscape:label="Layer 1"
     inkscape:groupmode="layer"
     id="layer1"
     transform="translate(226.33086,-505.09551)">
    <g
       id="g28"
       transform="translate(29.785814,17.203817)">
      <path
         style="font-size:63.5px;font-family:Consolas;-inkscape-font-specification:Consolas;fill:#000000;stroke-width:0.076;stroke-dasharray:none;paint-order:fill markers stroke"
         d="m -205.29551,487.89167 c -3.34433,0 -6.43441,0.57162 -9.27073,1.71462 -2.83632,1.10067 -5.31285,2.66694 -7.42951,4.69894 -2.07433,2.032 -3.70429,4.42361 -4.88963,7.17527 -1.143,2.75166 -1.71462,5.75736 -1.71462,9.01702 0,3.25966 0.57162,6.26536 1.71462,9.01702 1.18534,2.75167 2.8153,5.14379 4.88962,7.17579 2.07433,2.032 4.52963,3.6195 7.36596,4.7625 2.83633,1.10067 5.92642,1.65106 9.27075,1.65106 3.25966,0 6.3078,-0.55039 9.14412,-1.65106 2.83635,-1.10066 5.22795,-2.73062 7.17528,-4.88962 l -2.98431,-2.98432 c -1.82032,1.86267 -3.83138,3.21717 -6.0327,4.06384 -2.20134,0.84666 -4.57171,1.2702 -7.11171,1.2702 -2.66699,0 -5.14352,-0.44476 -7.42952,-1.33376 -2.28599,-0.93134 -4.2758,-2.22267 -5.96914,-3.87367 -1.69333,-1.69333 -3.02661,-3.64069 -4.00027,-5.84202 -0.93134,-2.24366 -1.39733,-4.69896 -1.39733,-7.36596 0,-2.667 0.46599,-5.10106 1.39733,-7.3024 0.97366,-2.24366 2.30694,-4.19102 4.00027,-5.84202 1.69334,-1.69333 3.68315,-2.98415 5.96914,-3.87314 2.286,-0.93134 4.76253,-1.39734 7.42952,-1.39734 2.54,0 4.91038,0.42355 7.11171,1.27021 2.20133,0.80433 4.21238,2.13761 6.03271,4.00027 l 2.98431,-2.98431 c -1.94733,-2.159 -4.33893,-3.76773 -7.17529,-4.82606 -2.83633,-1.10067 -5.86323,-1.65106 -9.08058,-1.65106 z"
         id="text9-1-4" />
      <path
         style="font-size:63.5px;font-family:Consolas;-inkscape-font-specification:Consolas;fill:#000000;stroke-width:0.076;stroke-dasharray:none;paint-order:fill markers stroke"
         d="m -232.81218,487.89167 c -3.34433,0 -6.43441,0.57162 -9.27073,1.71462 -2.83632,1.10067 -5.31285,2.66694 -7.42951,4.69894 -2.07433,2.032 -3.70429,4.42361 -4.88963,7.17527 -1.143,2.75166 -1.71462,5.75736 -1.71462,9.01702 0,3.25966 0.57162,6.26536 1.71462,9.01702 1.18534,2.75167 2.8153,5.14379 4.88962,7.17579 2.07433,2.032 4.52963,3.6195 7.36596,4.7625 2.83633,1.10067 5.92642,1.65106 9.27075,1.65106 3.25966,0 6.3078,-0.55039 9.14412,-1.65106 2.83635,-1.10066 5.22795,-2.73062 7.17528,-4.88962 l -2.98431,-2.98432 c -1.82032,1.86267 -3.83138,3.21717 -6.0327,4.06384 -2.20134,0.84666 -4.57171,1.2702 -7.11171,1.2702 -2.66699,0 -5.14352,-0.44476 -7.42952,-1.33376 -2.28599,-0.93134 -4.2758,-2.22267 -5.96914,-3.87367 -1.69333,-1.69333 -3.02661,-3.64069 -4.00027,-5.84202 -0.93134,-2.24366 -1.39733,-4.69896 -1.39733,-7.36596 0,-2.667 0.46599,-5.10106 1.39733,-7.3024 0.97366,-2.24366 2.30694,-4.19102 4.00027,-5.84202 1.69334,-1.69333 3.68315,-2.98415 5.96914,-3.87314 2.286,-0.93134 4.76253,-1.39734 7.42952,-1.39734 2.54,0 4.91038,0.42355 7.11171,1.27021 2.20133,0.80433 4.21238,2.13761 6.03271,4.00027 l 2.98431,-2.98431 c -1.94733,-2.159 -4.33893,-3.76773 -7.17529,-4.82606 -2.83633,-1.10067 -5.86323,-1.65106 -9.08058,-1.65106 z"
         id="path27" />
    </g>
    <path
       style="fill:#000000;stroke-width:0.076;paint-order:fill markers stroke"
       d="m -242.70883,524.49473 h 30.12128 z"
       id="path28" />
    <rect
       style="display:none;fill:#000000;stroke-width:0.0997012;paint-order:markers fill stroke"
       id="rect28-7"
       width="39.560371"
       height="4.0002699"
       x="-228.60001"
       y="508.49738"
       rx="0"
       ry="0" />
    <rect
       style="fill:#000000;stroke-width:0.076;paint-order:markers fill stroke"
       id="rect29"
       width="24.001463"
       height="4.0002441"
       x="-222.36209"
       y="525.70148" />
  </g>
</svg>
