<?xml version="1.0" encoding="UTF-8"?>
<svg version="1.1" xmlns="http://www.w3.org/2000/svg" width="240" height="240">
<path d="M0 0 C0.69029297 0.22993652 1.38058594 0.45987305 2.09179688 0.69677734 C22.75711817 7.76359704 39.09702542 20.37201585 54 36 C57.9385388 32.18348133 61.20760168 28.19898042 64.44921875 23.79296875 C64.96097656 23.20128906 65.47273437 22.60960938 66 22 C66.66 22 67.32 22 68 22 C66.32871213 27.72160285 63.50561748 32.14199846 60.265625 37.09765625 C58.72033564 39.86745045 58.72033564 39.86745045 59.53515625 42.44921875 C60.98118769 44.9672415 62.46294777 47.45589203 64.02050781 49.90673828 C69.48189965 58.53299526 73.69036345 67.34499131 77 77 C77.2582959 77.74330566 77.5165918 78.48661133 77.78271484 79.25244141 C85.3229447 102.04747156 84.86005863 130.38087932 77 153 C76.74299316 153.74975098 76.48598633 154.49950195 76.22119141 155.27197266 C65.73931487 184.890191 44.18769492 209.60938114 15.88720703 223.3046875 C9.70015717 226.20640642 3.50959631 228.89505574 -3 231 C-4.19238281 231.39316406 -5.38476562 231.78632813 -6.61328125 232.19140625 C-28.0408432 238.43041348 -55.07158215 237.27254581 -76 230 C-76.74975098 229.74299316 -77.49950195 229.48598633 -78.27197266 229.22119141 C-107.890191 218.73931487 -132.60938114 197.18769492 -146.3046875 168.88720703 C-149.20640642 162.70015717 -151.89505574 156.50959631 -154 150 C-154.39316406 148.80761719 -154.78632813 147.61523438 -155.19140625 146.38671875 C-161.43041348 124.9591568 -160.27254581 97.92841785 -153 77 C-152.74299316 76.25024902 -152.48598633 75.50049805 -152.22119141 74.72802734 C-141.73931487 45.109809 -120.18769492 20.39061886 -91.88720703 6.6953125 C-85.70015717 3.79359358 -79.50959631 1.10494426 -73 -1 C-71.80761719 -1.39316406 -70.61523438 -1.78632812 -69.38671875 -2.19140625 C-47.8900128 -8.45054596 -21.01176803 -7.18898568 0 0 Z " fill="#0B77D2" transform="translate(158,5)"/>
<path d="M0 0 C0.66 0 1.32 0 2 0 C0.56347895 4.91441412 -1.54159615 9.00238358 -4.125 13.375 C-4.49753906 14.01566406 -4.87007812 14.65632813 -5.25390625 15.31640625 C-6.16434002 16.88048477 -7.08148191 18.44065534 -8 20 C-8.66 20 -9.32 20 -10 20 C-10.27223389 20.8772876 -10.54446777 21.7545752 -10.82495117 22.65844727 C-11.92945682 25.79939238 -13.21851271 28.54140687 -14.80078125 31.46484375 C-15.35878418 32.49963867 -15.91678711 33.53443359 -16.49169922 34.60058594 C-17.39299561 36.2523584 -17.39299561 36.2523584 -18.3125 37.9375 C-18.93914551 39.09411133 -19.56579102 40.25072266 -20.21142578 41.44238281 C-24.69327865 49.69675192 -29.30658899 57.87355486 -33.9621582 66.03100586 C-38.81796528 74.58251214 -43.42900684 83.25575448 -48.0302124 91.94567871 C-52.89425967 101.12616718 -57.89823654 110.20748416 -63.05981445 119.22509766 C-67.95974719 127.82923158 -72.58758729 136.5694487 -77.21679688 145.32086182 C-82.54237317 155.37882851 -88.07250105 165.28232143 -94 175 C-97.91725066 173.34814731 -100.89091773 170.69578561 -104.0625 167.9375 C-105.23110957 166.93412516 -106.40039022 165.93153143 -107.5703125 164.9296875 C-108.44091309 164.18283691 -108.44091309 164.18283691 -109.32910156 163.42089844 C-111.66890123 161.43117984 -114.05097953 159.49579403 -116.4375 157.5625 C-121.30129025 153.60491812 -126.05881231 149.53457554 -130.80834961 145.44165039 C-134.33298919 142.41054711 -137.89039882 139.43014684 -141.5 136.5 C-146.34596789 132.5662143 -151.08098528 128.51552241 -155.80859375 124.44140625 C-159.33317903 121.41041716 -162.89048832 118.43007419 -166.5 115.5 C-170.8632726 111.95362539 -175.16365529 108.34066187 -179.4375 104.6875 C-180.02917969 104.18347656 -180.62085938 103.67945313 -181.23046875 103.16015625 C-184.27683696 100.54698719 -187.20728149 97.88878254 -190 95 C-183.07651663 97.22291995 -176.35775513 99.79237415 -169.625 102.53515625 C-168.00174805 103.1923893 -168.00174805 103.1923893 -166.34570312 103.86289978 C-162.89607879 105.26017658 -159.44798422 106.66118151 -156 108.0625 C-147.00168052 111.71248058 -138.00207268 115.35928548 -129 119 C-127.8258252 119.47491882 -126.65165039 119.94983765 -125.44189453 120.43914795 C-121.98333719 121.83623306 -118.52319179 123.22930545 -115.0625 124.62109375 C-114.00804688 125.04737564 -112.95359375 125.47365753 -111.8671875 125.91285706 C-110.89136719 126.30440475 -109.91554688 126.69595245 -108.91015625 127.09936523 C-108.05558838 127.44345932 -107.20102051 127.78755341 -106.32055664 128.14207458 C-104.22494375 128.91683678 -102.17746799 129.5097361 -100 130 C-99.77957031 129.47792969 -99.55914062 128.95585937 -99.33203125 128.41796875 C-97.49313541 125.07991443 -95.09521167 122.24834992 -92.6875 119.3125 C-88.21642674 113.79851581 -83.84870116 108.22127431 -79.5625 102.5625 C-74.79066092 96.27490866 -69.88169847 90.12155616 -64.87524414 84.01977539 C-60.98083924 79.2548771 -57.21644557 74.4046361 -53.5 69.5 C-49.26677624 63.91336575 -44.94610991 58.41875912 -40.5 53 C-35.37578395 46.75420769 -30.42611595 40.39362565 -25.54321289 33.95776367 C-22.003961 29.29581956 -18.39772147 24.7005649 -14.68359375 20.17578125 C-12.64376253 17.53961886 -10.84159861 14.77800469 -9 12 C-7.47602624 9.86227572 -5.93429977 7.73709501 -4.375 5.625 C-3.59898437 4.56539062 -2.82296875 3.50578125 -2.0234375 2.4140625 C-1.35570312 1.61742188 -0.68796875 0.82078125 0 0 Z " fill="#FBFDFE" transform="translate(224,27)"/>
</svg>
