<svg width="61" height="78" viewBox="0 0 61 78" fill="none" xmlns="http://www.w3.org/2000/svg">
<path d="M49.2802 70.9652C48.8068 74.3829 45.402 77.0631 41.9975 76.1277C37.1729 74.8325 31.5837 72.7819 26.5586 72.4042L18.8392 71.8285C17.5992 71.7422 16.4337 71.2113 15.5621 70.3355L2.27158 56.8807C1.56569 56.164 1.09442 55.2541 0.919051 54.2692C0.74368 53.2843 0.872326 52.27 1.28826 51.3584C1.28826 51.3584 9.48103 33.6224 9.80888 32.7052C10.1001 31.7877 11.2292 23.7292 11.8844 19.412C12.0682 18.2658 12.647 17.2174 13.523 16.4442L29.2167 2.55721C29.7337 2.09895 30.3401 1.74993 30.9987 1.53157C31.6572 1.31321 32.3539 1.23012 33.0461 1.28739C33.7383 1.34467 34.4114 1.54111 35.024 1.86466C35.6366 2.1882 36.1758 2.63202 36.6085 3.16888L49.8263 19.6458C50.5659 20.5867 50.9635 21.7462 50.9551 22.9376C50.9551 26.0495 51.2283 32.471 52.994 36.6084C54.7464 40.3292 56.9208 43.8413 59.4755 47.0772C59.7848 47.474 59.9674 47.9529 59.9998 48.4528C60.0323 48.9526 59.9131 49.4506 59.6576 49.8832C58.5107 51.808 56.2167 55.5134 52.994 60.244C50.9539 63.4968 49.6785 67.1605 49.2619 70.965L49.2802 70.9652Z" fill="black" fill-opacity="0.3"/>
<path d="M49.4078 70.3891C48.9345 73.8249 45.5299 76.505 42.1251 75.5878C37.3188 74.2745 31.7475 72.2239 26.7046 71.8461L19.0033 71.2704C17.7603 71.1811 16.5939 70.6433 15.7262 69.7596L2.43562 56.2687C1.72291 55.5448 1.24781 54.6254 1.07242 53.6305C0.897024 52.6356 1.0295 51.6116 1.45253 50.6923C1.45253 50.6923 9.66337 32.8845 9.97292 31.9491C10.2825 31.0319 11.3932 22.9553 12.0485 18.6022C12.2282 17.4494 12.8074 16.3941 13.687 15.6162L29.3809 1.67571C29.8992 1.21849 30.5065 0.870762 31.1657 0.653873C31.8249 0.436984 32.522 0.355514 33.2142 0.414468C33.9064 0.473422 34.5791 0.671555 35.191 0.996699C35.8029 1.32184 36.3411 1.76714 36.7725 2.30523L49.9722 18.854C50.7093 19.7963 51.1065 20.9549 51.1008 22.1458C51.1008 25.2758 51.3742 31.7154 53.1219 35.8704C54.873 39.6088 57.0473 43.1391 59.6034 46.3935C59.9193 46.7901 60.1074 47.2715 60.1431 47.775C60.1788 48.2785 60.0605 48.7811 59.8035 49.2174C58.6381 51.1602 56.3626 54.8656 53.1219 59.6323C51.0892 62.9002 49.8204 66.5752 49.4078 70.3891Z" fill="#6C31E3"/>
<path d="M17.1464 70.7672C23.3183 58.4096 23.1542 49.5417 20.5145 43.2458C18.1114 37.4178 13.6144 33.7483 10.0824 31.464C10.0117 31.7992 9.90171 32.1252 9.75456 32.4353L1.45266 50.6929C1.03191 51.6139 0.902375 52.639 1.08101 53.6339C1.25964 54.6289 1.73811 55.5474 2.45382 56.2693L15.7263 69.76C16.1423 70.1683 16.6217 70.5083 17.1464 70.7672Z" fill="url(#paint0_radial_2092_24580)"/>
<path d="M33.932 45.6918C35.5987 45.8535 37.2381 46.2221 38.8115 46.789C43.8727 48.6597 48.4788 52.869 52.284 60.9815C52.5571 60.5138 52.8301 60.064 53.1215 59.6323C55.4469 56.223 57.675 52.75 59.8032 49.2173C60.0626 48.7827 60.184 48.2812 60.1515 47.7777C60.119 47.2742 59.9342 46.7919 59.6211 46.3934C57.0587 43.1399 54.8783 39.6096 53.1215 35.8704C51.3736 31.7332 51.1188 25.2757 51.1004 22.1457C51.1004 20.9586 50.7182 19.7893 49.9719 18.8539L36.7721 2.30515L36.5536 2.03549C37.5187 5.18308 37.4642 7.70161 36.8632 9.98596C36.3171 12.1085 35.2976 14.0332 34.2232 16.066C33.8593 16.7495 33.495 17.4509 33.1491 18.1704C31.437 21.4013 30.4555 24.961 30.2726 28.6034C30.0905 32.9565 30.9825 38.4068 33.9139 45.692L33.932 45.6918Z" fill="url(#paint1_radial_2092_24580)"/>
<path d="M33.9138 45.692C30.9824 38.4069 30.0904 32.9567 30.2725 28.6034C30.4546 24.2865 31.7289 21.0487 33.149 18.1706L34.2414 16.0661C35.2975 14.0334 36.2989 12.1087 36.8631 9.98615C37.5333 7.36146 37.4259 4.60174 36.5535 2.03568C34.6684 -0.0108248 31.4655 -0.171524 29.3802 1.67583L13.6868 15.6163C12.8071 16.3942 12.228 17.4496 12.0482 18.6023L10.1367 31.1217C10.1367 31.2476 10.1001 31.3557 10.082 31.4816C13.614 33.7481 18.0927 37.4176 20.5141 43.2277C20.9875 44.3789 21.3881 45.5841 21.6793 46.8972C25.6579 45.8071 29.7951 45.3936 33.914 45.6741L33.9138 45.692Z" fill="url(#paint2_radial_2092_24580)"/>
<path d="M42.143 75.5876C45.5295 76.5049 48.934 73.8247 49.4073 70.3709C49.795 67.0949 50.7756 63.9146 52.3022 60.9814C48.4787 52.8687 43.8726 48.6596 38.8295 46.7889C33.4588 44.8104 27.6145 45.4758 21.6791 46.8969C23.0081 52.851 22.2252 60.6397 17.1641 70.7667C17.7285 71.0544 18.3656 71.2165 19.0028 71.2703L26.9954 71.8638C31.3283 72.1697 37.7917 74.3821 42.143 75.5874" fill="url(#paint3_radial_2092_24580)"/>
<path d="M30.3097 28.3335C30.1095 32.6506 30.6556 37.5794 33.5868 44.8463L32.6765 44.7564C30.0365 37.1836 29.4541 33.2982 29.6542 28.9271C29.8364 24.5562 31.2747 21.1922 32.6948 18.3143C33.0588 17.5948 33.8964 16.2456 34.2606 15.5621C35.3164 13.5295 36.0266 12.4683 36.6274 10.6154C37.5013 8.02525 37.3192 6.80215 37.2099 5.57906C37.8836 9.98591 35.3164 13.8173 33.3866 17.7207C31.6 20.9995 30.5447 24.6182 30.2916 28.3335H30.3097Z" fill="url(#paint4_radial_2092_24580)"/>
<path d="M21.3881 43.5512C21.7521 44.3428 22.0616 44.9904 22.2801 45.9796L21.4972 46.1595C21.1877 45.0083 20.9511 44.181 20.4958 43.1916C17.8378 37.0216 13.5774 33.8379 10.1182 31.4995C14.3058 33.7301 18.6207 37.2375 21.3879 43.5512" fill="url(#paint5_radial_2092_24580)"/>
<path d="M22.3173 46.7711C23.7737 53.5166 22.1352 62.0966 17.3105 70.4431C21.3525 62.1687 23.3187 54.2358 21.6801 46.879L22.3173 46.7531V46.7711Z" fill="url(#paint6_radial_2092_24580)"/>
<path d="M38.9936 46.1419C46.9132 49.0739 49.9721 55.4954 52.2478 60.8738C49.4257 55.2617 45.5115 49.0558 38.7024 46.7534C33.5316 44.9907 29.1623 45.2064 21.6794 46.8793L21.5156 46.1598C29.4535 44.361 33.6046 44.1453 38.9936 46.1598V46.1419Z" fill="url(#paint7_radial_2092_24580)"/>
<defs>
<radialGradient id="paint0_radial_2092_24580" cx="0" cy="0" r="1" gradientUnits="userSpaceOnUse" gradientTransform="translate(6604.52 62.6884) rotate(-104.163) scale(3440.35 6511.13)">
<stop stop-color="white" stop-opacity="0.4"/>
<stop offset="1" stop-opacity="0.1"/>
</radialGradient>
<radialGradient id="paint1_radial_2092_24580" cx="0" cy="0" r="1" gradientUnits="userSpaceOnUse" gradientTransform="translate(7724.94 1603.16) rotate(-81.9041) scale(5626.08 11354.6)">
<stop stop-color="white" stop-opacity="0.6"/>
<stop offset="1" stop-color="white" stop-opacity="0.1"/>
</radialGradient>
<radialGradient id="paint2_radial_2092_24580" cx="0" cy="0" r="1" gradientUnits="userSpaceOnUse" gradientTransform="translate(6575.04 2583.12) rotate(-76.8476) scale(4808.37 8407.41)">
<stop stop-color="white" stop-opacity="0.8"/>
<stop offset="1" stop-color="white" stop-opacity="0.4"/>
</radialGradient>
<radialGradient id="paint3_radial_2092_24580" cx="0" cy="0" r="1" gradientUnits="userSpaceOnUse" gradientTransform="translate(2540.54 5.09686e+06) scale(3235.73 2782.61)">
<stop stop-color="white" stop-opacity="0.3"/>
<stop offset="1" stop-opacity="0.3"/>
</radialGradient>
<radialGradient id="paint4_radial_2092_24580" cx="0" cy="0" r="1" gradientUnits="userSpaceOnUse" gradientTransform="translate(-1830.42 839.08) rotate(102.141) scale(2502.67 13058.2)">
<stop stop-color="white" stop-opacity="0"/>
<stop offset="1" stop-color="white" stop-opacity="0.2"/>
</radialGradient>
<radialGradient id="paint5_radial_2092_24580" cx="0" cy="0" r="1" gradientUnits="userSpaceOnUse" gradientTransform="translate(-73.7478 -231.985) rotate(44.6542) scale(1855.6 2263.73)">
<stop stop-color="white" stop-opacity="0.2"/>
<stop offset="1" stop-color="white" stop-opacity="0.4"/>
</radialGradient>
<radialGradient id="paint6_radial_2092_24580" cx="0" cy="0" r="1" gradientUnits="userSpaceOnUse" gradientTransform="translate(1300.06 -355.831) rotate(79.881) scale(2153.61 9462.24)">
<stop stop-color="white" stop-opacity="0.1"/>
<stop offset="1" stop-color="white" stop-opacity="0.3"/>
</radialGradient>
<radialGradient id="paint7_radial_2092_24580" cx="0" cy="0" r="1" gradientUnits="userSpaceOnUse" gradientTransform="translate(3074.69 -8.87661e+06) scale(6263.95 3290.76)">
<stop stop-color="white" stop-opacity="0.2"/>
<stop offset="0.5" stop-color="white" stop-opacity="0.2"/>
<stop offset="1" stop-color="white" stop-opacity="0.3"/>
</radialGradient>
</defs>
</svg>
