<?xml version="1.0" encoding="UTF-8"?>
<svg version="1.1" xmlns="http://www.w3.org/2000/svg" width="512" height="512">
<path d="M0 0 C168.96 0 337.92 0 512 0 C512 168.96 512 337.92 512 512 C343.04 512 174.08 512 0 512 C0 343.04 0 174.08 0 0 Z " fill="#1875F3" transform="translate(0,0)"/>
<path d="M0 0 C0.87527344 0.7528125 1.75054687 1.505625 2.65234375 2.28125 C7.87684935 6.86938725 12.62788208 11.59531806 17 17 C18.15628906 18.41732422 18.15628906 18.41732422 19.3359375 19.86328125 C33.76071914 37.87390018 44.51273968 58.55624713 50 81 C50.18933105 81.76795898 50.37866211 82.53591797 50.57373047 83.32714844 C51.14820921 85.69390389 51.70457339 88.06388878 52.25 90.4375 C52.41346924 91.14656494 52.57693848 91.85562988 52.74536133 92.58618164 C61.31098538 131.83272895 51.58102903 175.66881315 30.19458008 209.22705078 C25.58888311 216.18076767 20.46360115 222.69954445 15 229 C14.2471875 229.87527344 13.494375 230.75054687 12.71875 231.65234375 C8.13061275 236.87684935 3.40468194 241.62788208 -2 246 C-3.41732422 247.15628906 -3.41732422 247.15628906 -4.86328125 248.3359375 C-25.78242958 265.08821059 -49.52745758 275.39082562 -75.5625 281.3125 C-76.26366943 281.47202148 -76.96483887 281.63154297 -77.68725586 281.79589844 C-117.76788009 290.37547211 -160.76332228 279.98466232 -195.12109375 258.68505859 C-202.54777334 253.83791736 -209.21515744 248.24547334 -215.671875 242.17578125 C-217.48568315 240.48066189 -219.3022971 238.90753465 -221.25 237.375 C-245.50719382 216.42560534 -259.3723834 183.95019261 -266.3125 153.4375 C-266.47202148 152.73633057 -266.63154297 152.03516113 -266.79589844 151.31274414 C-275.36552248 111.27860091 -265.02861205 68.15892698 -243.66894531 33.86279297 C-239.037676 26.80336006 -233.78042269 20.34642064 -228.01953125 14.171875 C-226.24915862 12.26795395 -224.58614232 10.32108849 -222.9375 8.3125 C-204.50255607 -13.22833122 -175.13748084 -28.36517281 -148 -35 C-146.84806152 -35.28399658 -146.84806152 -35.28399658 -145.67285156 -35.57373047 C-143.30609611 -36.14820921 -140.93611122 -36.70457339 -138.5625 -37.25 C-137.85343506 -37.41346924 -137.14437012 -37.57693848 -136.41381836 -37.74536133 C-88.2719707 -48.25239943 -36.60180781 -31.74019364 0 0 Z " fill="#FEFEFE" transform="translate(363,134)"/>
<path d="M0 0 C9.35268925 6.97597563 16.58191679 18.48258283 19 30 C20.03105064 45.80380893 17.58904778 59.65241873 7.1875 72.18359375 C-2.12403255 82.11464359 -14.36025515 87.87078414 -28.0065918 88.47290039 C-42.25002432 88.66064781 -54.3955452 83.37344043 -64.8125 73.6875 C-74.26825708 63.48523579 -78.6691825 50.70057743 -78.47045898 36.88354492 C-77.87589054 23.73803298 -71.53534846 11.49351483 -61.93359375 2.5546875 C-42.98457486 -12.6810893 -20.22815757 -12.7129981 0 0 Z " fill="#1975F3" transform="translate(334,168)"/>
</svg>
