<svg width="19" height="19" viewBox="0 0 19 19" fill="none" xmlns="http://www.w3.org/2000/svg">
<path d="M14.5407 18.4999C14.2872 18.5004 14.0394 18.425 13.8297 18.2835L9.55239 15.4352C9.53132 15.4207 9.50632 15.413 9.48072 15.413C9.45512 15.413 9.43012 15.4207 9.40905 15.4352L5.13172 18.2835C4.91693 18.426 4.6636 18.5002 4.40536 18.4962C4.14712 18.4923 3.8962 18.4104 3.68591 18.2614C3.47563 18.1125 3.31592 17.9035 3.22801 17.6622C3.14011 17.4209 3.12815 17.1588 3.19373 16.9106L4.59849 11.9887C4.60513 11.964 4.60432 11.9378 4.59617 11.9135C4.58802 11.8892 4.57288 11.8678 4.55262 11.852L0.504634 8.69038C0.291535 8.53266 0.133463 8.31263 0.0525815 8.06114C-0.0282997 7.80966 -0.0279337 7.53933 0.053628 7.28806C0.13519 7.03679 0.293857 6.81718 0.507383 6.66003C0.720908 6.50287 0.978584 6.41605 1.24428 6.41174L6.4046 6.21806C6.42997 6.21632 6.45429 6.20732 6.47464 6.19216C6.49499 6.177 6.51049 6.15632 6.51927 6.13261L8.29671 1.33037C8.38631 1.08692 8.54903 0.876699 8.76286 0.728176C8.97669 0.579654 9.23129 0.5 9.49219 0.5C9.75309 0.5 10.0077 0.579654 10.2215 0.728176C10.4353 0.876699 10.5981 1.08692 10.6877 1.33037L12.4651 6.13261C12.4739 6.15632 12.4894 6.177 12.5097 6.19216C12.5301 6.20732 12.5544 6.21632 12.5798 6.21806L17.7401 6.41174C18.0058 6.41605 18.2635 6.50287 18.477 6.66003C18.6905 6.81718 18.8492 7.03679 18.9307 7.28806C19.0123 7.53933 19.0127 7.80966 18.9318 8.06114C18.8509 8.31263 18.6928 8.53266 18.4797 8.69038L14.4318 11.852C14.4109 11.8673 14.3953 11.8887 14.3871 11.9132C14.3789 11.9376 14.3784 11.964 14.3859 11.9887L15.7906 16.9106C15.8399 17.0994 15.8448 17.2969 15.8049 17.4879C15.765 17.6788 15.6814 17.8581 15.5605 18.0118C15.4397 18.1655 15.2848 18.2895 15.108 18.3741C14.9311 18.4588 14.737 18.5018 14.5407 18.4999ZM9.48359 14.2731C9.73756 14.2804 9.98337 14.3638 10.1888 14.5123L14.4662 17.3606C14.4878 17.377 14.5143 17.386 14.5415 17.3862C14.5687 17.3864 14.5953 17.3778 14.6172 17.3618C14.6391 17.3458 14.6553 17.3231 14.6632 17.2973C14.6711 17.2714 14.6704 17.2436 14.6611 17.2182L13.2564 12.2963C13.1872 12.0549 13.1923 11.7984 13.271 11.5599C13.3497 11.3213 13.4983 11.1116 13.6978 10.9576L17.7458 7.79602C17.7679 7.78061 17.7844 7.75857 17.793 7.73314C17.8015 7.7077 17.8016 7.68022 17.7933 7.65472C17.785 7.62923 17.7686 7.60706 17.7466 7.59148C17.7247 7.57589 17.6983 7.56772 17.6713 7.56815L12.511 7.37447C12.2583 7.36468 12.0143 7.28035 11.81 7.13222C11.6058 6.98409 11.4506 6.77888 11.3642 6.54276L9.58679 1.74052C9.57878 1.71502 9.56277 1.69274 9.54111 1.67691C9.51945 1.66109 9.49327 1.65255 9.46639 1.65255C9.4395 1.65255 9.41332 1.66109 9.39166 1.67691C9.37 1.69274 9.35399 1.71502 9.34598 1.74052L7.58574 6.53707C7.49936 6.77318 7.34416 6.97839 7.13992 7.12652C6.93569 7.27465 6.69167 7.35898 6.439 7.36877L1.27868 7.56246C1.2517 7.56202 1.22529 7.5702 1.20333 7.58578C1.18137 7.60136 1.16502 7.62353 1.15668 7.64903C1.14834 7.67452 1.14845 7.70201 1.15699 7.72744C1.16554 7.75287 1.18206 7.77491 1.20414 7.79032L5.25786 10.9576C5.45679 11.1121 5.60498 11.3219 5.68359 11.5603C5.76221 11.7986 5.76769 12.0549 5.69935 12.2963L4.30033 17.2182C4.29199 17.2428 4.29195 17.2695 4.30022 17.2942C4.3085 17.3189 4.32464 17.3402 4.3462 17.3549C4.36697 17.3726 4.39341 17.3823 4.42074 17.3823C4.44807 17.3823 4.47451 17.3726 4.49528 17.3549L8.77261 14.5066C8.98135 14.3682 9.2269 14.2948 9.47785 14.2958L9.48359 14.2731Z" fill="#F91F5B"/>
</svg>
