<?xml version="1.0" encoding="UTF-8" standalone="no"?>
<svg
   width="19.000002"
   height="17.99996"
   viewBox="0 0 19.000002 17.99996"
   fill="none"
   version="1.1"
   id="svg1"
   sodipodi:docname="star.svg"
   inkscape:export-filename="star.png"
   inkscape:export-xdpi="96"
   inkscape:export-ydpi="96"
   xmlns:inkscape="http://www.inkscape.org/namespaces/inkscape"
   xmlns:sodipodi="http://sodipodi.sourceforge.net/DTD/sodipodi-0.dtd"
   xmlns="http://www.w3.org/2000/svg"
   xmlns:svg="http://www.w3.org/2000/svg">
  <defs
     id="defs1" />
  <sodipodi:namedview
     id="namedview1"
     pagecolor="#505050"
     bordercolor="#eeeeee"
     borderopacity="1"
     inkscape:showpageshadow="0"
     inkscape:pageopacity="0"
     inkscape:pagecheckerboard="0"
     inkscape:deskcolor="#505050" />
  <g
     id="g16"
     transform="translate(0.00781249,-0.5)">
    <path
       d="m 14.5407,18.4999 c -0.2535,5e-4 -0.5013,-0.0749 -0.711,-0.2164 L 9.55239,15.4352 C 9.53132,15.4207 9.50632,15.413 9.48072,15.413 c -0.0256,0 -0.0506,0.0077 -0.07167,0.0222 L 5.13172,18.2835 C 4.91693,18.426 4.6636,18.5002 4.40536,18.4962 4.14712,18.4923 3.8962,18.4104 3.68591,18.2614 3.47563,18.1125 3.31592,17.9035 3.22801,17.6622 3.14011,17.4209 3.12815,17.1588 3.19373,16.9106 L 4.59849,11.9887 C 4.60513,11.964 4.60432,11.9378 4.59617,11.9135 4.58802,11.8892 4.57288,11.8678 4.55262,11.852 L 0.504634,8.69038 C 0.291535,8.53266 0.133463,8.31263 0.0525815,8.06114 -0.0282997,7.80966 -0.0279337,7.53933 0.053628,7.28806 0.13519,7.03679 0.293857,6.81718 0.507383,6.66003 0.720908,6.50287 0.978584,6.41605 1.24428,6.41174 L 6.4046,6.21806 C 6.42997,6.21632 6.45429,6.20732 6.47464,6.19216 6.49499,6.177 6.51049,6.15632 6.51927,6.13261 L 8.29671,1.33037 C 8.38631,1.08692 8.54903,0.876699 8.76286,0.728176 8.97669,0.579654 9.23129,0.5 9.49219,0.5 c 0.2609,0 0.51551,0.079654 0.72931,0.228176 0.2138,0.148523 0.3766,0.358744 0.4662,0.602194 l 1.7774,4.80224 c 0.0088,0.02371 0.0243,0.04439 0.0446,0.05955 0.0204,0.01516 0.0447,0.02416 0.0701,0.0259 l 5.1603,0.19368 c 0.2657,0.00431 0.5234,0.09113 0.7369,0.24829 0.2135,0.15715 0.3722,0.37676 0.4537,0.62803 0.0816,0.25127 0.082,0.5216 0.0011,0.77308 -0.0809,0.25149 -0.239,0.47152 -0.4521,0.62924 L 14.4318,11.852 c -0.0209,0.0153 -0.0365,0.0367 -0.0447,0.0612 -0.0082,0.0244 -0.0087,0.0508 -0.0012,0.0755 l 1.4047,4.9219 c 0.0493,0.1888 0.0542,0.3863 0.0143,0.5773 -0.0399,0.1909 -0.1235,0.3702 -0.2444,0.5239 -0.1208,0.1537 -0.2757,0.2777 -0.4525,0.3623 -0.1769,0.0847 -0.371,0.1277 -0.5673,0.1258 z M 9.48359,14.2731 c 0.25397,0.0073 0.49978,0.0907 0.70521,0.2392 l 4.2774,2.8483 c 0.0216,0.0164 0.0481,0.0254 0.0753,0.0256 0.0272,2e-4 0.0538,-0.0084 0.0757,-0.0244 0.0219,-0.016 0.0381,-0.0387 0.046,-0.0645 0.0079,-0.0259 0.0072,-0.0537 -0.0021,-0.0791 l -1.4047,-4.9219 c -0.0692,-0.2414 -0.0641,-0.4979 0.0146,-0.7364 0.0787,-0.2386 0.2273,-0.4483 0.4268,-0.6023 l 4.048,-3.16158 C 17.7679,7.78061 17.7844,7.75857 17.793,7.73314 17.8015,7.7077 17.8016,7.68022 17.7933,7.65472 17.785,7.62923 17.7686,7.60706 17.7466,7.59148 17.7247,7.57589 17.6983,7.56772 17.6713,7.56815 L 12.511,7.37447 C 12.2583,7.36468 12.0143,7.28035 11.81,7.13222 11.6058,6.98409 11.4506,6.77888 11.3642,6.54276 L 9.58679,1.74052 C 9.57878,1.71502 9.56277,1.69274 9.54111,1.67691 9.51945,1.66109 9.49327,1.65255 9.46639,1.65255 9.4395,1.65255 9.41332,1.66109 9.39166,1.67691 9.37,1.69274 9.35399,1.71502 9.34598,1.74052 L 7.58574,6.53707 C 7.49936,6.77318 7.34416,6.97839 7.13992,7.12652 6.93569,7.27465 6.69167,7.35898 6.439,7.36877 L 1.27868,7.56246 C 1.2517,7.56202 1.22529,7.5702 1.20333,7.58578 1.18137,7.60136 1.16502,7.62353 1.15668,7.64903 1.14834,7.67452 1.14845,7.70201 1.15699,7.72744 1.16554,7.75287 1.18206,7.77491 1.20414,7.79032 l 4.05372,3.16728 c 0.19893,0.1545 0.34712,0.3643 0.42573,0.6027 0.07862,0.2383 0.0841,0.4946 0.01576,0.736 l -1.39902,4.9219 c -0.00834,0.0246 -0.00838,0.0513 -1.1e-4,0.076 0.00828,0.0247 0.02442,0.046 0.04598,0.0607 0.02077,0.0177 0.04721,0.0274 0.07454,0.0274 0.02733,0 0.05377,-0.0097 0.07454,-0.0274 L 8.77261,14.5066 C 8.98135,14.3682 9.2269,14.2948 9.47785,14.2958 Z"
       fill="#f91f5b"
       id="path1" />
    <path
       style="fill:#f91f5b;fill-opacity:1;stroke-width:0.00634726;paint-order:markers fill stroke"
       d="M 9.4274287,0.86200219 C 9.0320501,0.87402729 8.7281648,1.1918549 8.5997374,1.5449834 8.1204688,2.7404575 7.706588,3.961088 7.2502871,5.1654413 7.0892851,5.5722536 6.958625,5.9941698 6.7734477,6.3898562 6.668806,6.5210899 6.5078893,6.5876624 6.3411204,6.5719912 4.6480725,6.6633712 2.9519491,6.6889451 1.2591887,6.7835898 c -0.49588589,0.00651 -0.940818,0.4616324 -0.89414666,0.9630533 0.014952,0.3669162 0.29483445,0.639423 0.57763526,0.8362108 1.2980255,1.0263668 2.6136793,2.0313201 3.9023249,3.0690001 0.1309168,0.155636 0.1332218,0.373025 0.054595,0.552859 -0.4323161,1.582169 -0.9057873,3.153049 -1.3251575,4.738674 -0.1148224,0.360497 -0.029248,0.794362 0.28529,1.027347 0.3053055,0.262803 0.7772027,0.250152 1.0898449,0.0068 1.4449011,-0.920152 2.8489546,-1.903086 4.2949197,-2.82136 0.1009039,-0.07384 0.2378089,-0.07067 0.354057,-0.06714 1.4500287,0.916179 2.8734897,1.912757 4.3246947,2.843717 0.267837,0.196231 0.625171,0.313626 0.945029,0.173356 0.415914,-0.150499 0.660538,-0.626944 0.545177,-1.053108 -0.258389,-1.041868 -0.578749,-2.067536 -0.865845,-3.101793 -0.181974,-0.660083 -0.387309,-1.307479 -0.538701,-1.967028 -0.03286,-0.192009 0.09337,-0.356129 0.248097,-0.452207 C 15.54363,10.492855 16.868422,9.5016795 18.150777,8.4574043 18.453678,8.2342969 18.648096,7.8460268 18.551021,7.4694031 18.468729,7.0575338 18.059547,6.7781393 17.649633,6.7913739 15.917407,6.6938277 14.181786,6.6662162 12.449637,6.5698265 12.246102,6.5312274 12.113227,6.3398438 12.066597,6.149117 11.470949,4.5983479 10.924044,3.0295372 10.310639,1.4837574 10.183308,1.1150731 9.8243021,0.83996123 9.4274287,0.86200219 Z M 10.070316,14.808285 c -0.10347,0.100401 0.07059,-0.0845 0,0 z m -0.1693536,0.142984 c -0.00988,0.0055 0.011098,-0.0082 0,0 z"
       id="path16" />
  </g>
</svg>
