<?xml version="1.0" encoding="UTF-8" standalone="no"?>
<svg
   width="19.000002"
   height="17.99996"
   viewBox="0 0 19.000002 17.99996"
   fill="none"
   version="1.1"
   id="svg1"
   sodipodi:docname="star.svg"
   xmlns:inkscape="http://www.inkscape.org/namespaces/inkscape"
   xmlns:sodipodi="http://sodipodi.sourceforge.net/DTD/sodipodi-0.dtd"
   xmlns="http://www.w3.org/2000/svg"
   xmlns:svg="http://www.w3.org/2000/svg">
  <defs
     id="defs1" />
  <sodipodi:namedview
     id="namedview1"
     pagecolor="#505050"
     bordercolor="#eeeeee"
     borderopacity="1"
     inkscape:showpageshadow="0"
     inkscape:pageopacity="0"
     inkscape:pagecheckerboard="0"
     inkscape:deskcolor="#505050" />
  <path
     d="m 14.548512,17.9999 c -0.2535,5e-4 -0.5013,-0.0749 -0.711,-0.2164 L 9.5602025,14.9352 c -0.02107,-0.0145 -0.04607,-0.0222 -0.07167,-0.0222 -0.0256,0 -0.0506,0.0077 -0.07167,0.0222 l -4.27733,2.8483 c -0.21479,0.1425 -0.46812,0.2167 -0.72636,0.2127 -0.25824,-0.0039 -0.50916,-0.0858 -0.71945,-0.2348 -0.21028,-0.1489 -0.36999,-0.3579 -0.4579,-0.5992 -0.0879,-0.2413 -0.09986,-0.5034 -0.03428,-0.7516 l 1.40476,-4.9219 c 0.00664,-0.0247 0.00583,-0.0509 -0.00232,-0.0752 -0.00815,-0.0243 -0.02329,-0.0457 -0.04355,-0.0615 L 0.51244649,8.19038 c -0.213099,-0.15772 -0.371171,-0.37775 -0.4520525,-0.62924 -0.0808812,-0.25148 -0.0805152,-0.52181 0.0010465,-0.77308 0.081562,-0.25127 0.240229,-0.47088 0.453755,-0.62803 0.213525,-0.15716 0.471201,-0.24398 0.73689701,-0.24829 l 5.16032,-0.19368 c 0.02537,-0.00174 0.04969,-0.01074 0.07004,-0.0259 0.02035,-0.01516 0.03585,-0.03584 0.04463,-0.05955 l 1.77744,-4.80224 c 0.0896,-0.24345 0.25232,-0.453671 0.46615,-0.602194 C 8.9845025,0.079654 9.2391025,0 9.5000025,0 c 0.2609,0 0.5155095,0.079654 0.7293095,0.228176 0.2138,0.148523 0.3766,0.358744 0.4662,0.602194 l 1.7774,4.80224 c 0.0088,0.02371 0.0243,0.04439 0.0446,0.05955 0.0204,0.01516 0.0447,0.02416 0.0701,0.0259 l 5.1603,0.19368 c 0.2657,0.00431 0.5234,0.09113 0.7369,0.24829 0.2135,0.15715 0.3722,0.37676 0.4537,0.62803 0.0816,0.25127 0.082,0.5216 0.0011,0.77308 -0.0809,0.25149 -0.239,0.47152 -0.4521,0.62924 l -4.0479,3.16162 c -0.0209,0.0153 -0.0365,0.0367 -0.0447,0.0612 -0.0082,0.0244 -0.0087,0.0508 -0.0012,0.0755 l 1.4047,4.9219 c 0.0493,0.1888 0.0542,0.3863 0.0143,0.5773 -0.0399,0.1909 -0.1235,0.3702 -0.2444,0.5239 -0.1208,0.1537 -0.2757,0.2777 -0.4525,0.3623 -0.1769,0.0847 -0.371,0.1277 -0.5673,0.1258 z M 9.4914025,13.7731 c 0.25397,0.0073 0.49978,0.0907 0.7052095,0.2392 l 4.2774,2.8483 c 0.0216,0.0164 0.0481,0.0254 0.0753,0.0256 0.0272,2e-4 0.0538,-0.0084 0.0757,-0.0244 0.0219,-0.016 0.0381,-0.0387 0.046,-0.0645 0.0079,-0.0259 0.0072,-0.0537 -0.0021,-0.0791 l -1.4047,-4.9219 c -0.0692,-0.2414 -0.0641,-0.4979 0.0146,-0.7364 0.0787,-0.2386 0.2273,-0.4483 0.4268,-0.6023 l 4.048,-3.16158 c 0.0221,-0.01541 0.0386,-0.03745 0.0472,-0.06288 0.0085,-0.02544 0.0086,-0.05292 3e-4,-0.07842 -0.0083,-0.02549 -0.0247,-0.04766 -0.0467,-0.06324 -0.0219,-0.01559 -0.0483,-0.02376 -0.0753,-0.02333 l -5.1603,-0.19368 c -0.2527,-0.00979 -0.4967,-0.09412 -0.701,-0.24225 -0.2042,-0.14813 -0.3594,-0.35334 -0.4458,-0.58946 L 9.5946025,1.24052 c -0.00801,-0.0255 -0.02402,-0.04778 -0.04568,-0.06361 -0.02166,-0.01582 -0.04784,-0.02436 -0.07472,-0.02436 -0.02689,0 -0.05307,0.00854 -0.07473,0.02436 -0.02166,0.01583 -0.03767,0.03811 -0.04568,0.06361 l -1.76024,4.79655 c -0.08638,0.23611 -0.24158,0.44132 -0.44582,0.58945 -0.20423,0.14813 -0.44825,0.23246 -0.70092,0.24225 l -5.16032,0.19369 c -0.02698,-4.4e-4 -0.05339,0.00774 -0.07535,0.02332 -0.02196,0.01558 -0.03831,0.03775 -0.04665,0.06325 -0.00834,0.02549 -0.00823,0.05298 3.1e-4,0.07841 0.00855,0.02543 0.02507,0.04747 0.04715,0.06288 l 4.05372,3.16728 c 0.19893,0.1545 0.34712,0.3643 0.42573,0.6027 0.07862,0.2383 0.0841,0.4946 0.01576,0.736 l -1.39902,4.9219 c -0.00834,0.0246 -0.00838,0.0513 -1.1e-4,0.076 0.00828,0.0247 0.02442,0.046 0.04598,0.0607 0.02077,0.0177 0.04721,0.0274 0.07454,0.0274 0.02733,0 0.05377,-0.0097 0.07454,-0.0274 l 4.27733,-2.8483 c 0.20874,-0.1384 0.45429,-0.2118 0.70524,-0.2108 z"
     fill="#f91f5b"
     id="path1" />
  <path
     style="fill:#f91f5b;fill-opacity:1;stroke-width:0.287244;paint-order:markers fill stroke"
     d="M 9.4914025,13.7731 9.4742025,1.15255 9.5000007,0.516466 7.498725,5.0021746 7.1477325,6.62652 0.6707251,6.7257474 1.1347639,7.9189901 4.95756,11.078874 3.8527056,16.735728 4.3167444,17.464932 9.5078125,14.459728 9.4856625,13.7958"
     id="path16" />
</svg>
